# xmcd
#
# Track frame offsets: 
#        150
#        19411
#        38696
#        54023
#        83021
#        104665
#        126055
#        154038
#        177624
#        208719
#        224149
#        238864
#        262550
#        296017
#
# Disc length: 4285 seconds
#
# Revision: 1
# Processed by: cddbd v1.5.2PL0 Copyright (c) Steve Scherf et al.
# Submitted via: ExactAudioCopy v0.99pb5
#
DISCID=c710bb0e
DTITLE=Dennis Gruenling and Jump Time - Jump Time
DYEAR=1998
DGENRE=Blues
TTITLE0=Blowin' My Top
TTITLE1=Your Cash Ain't Nothin' But Trash
TTITLE2=Twelve O'clock Jump
TTITLE3=Mr. Cat
TTITLE4=Jump Time
TTITLE5=Lion's Den
TTITLE6=Rooftop Swing
TTITLE7=Keep It Up
TTITLE8=Ashburn Blues
TTITLE9=Good Luck
TTITLE10=Ropin' It
TTITLE11=The Jumpin' Blues
TTITLE12=Tribulations
TTITLE13=Take A Step
EXTD=
EXTT0=
EXTT1=
EXTT2=
EXTT3=
EXTT4=
EXTT5=
EXTT6=
EXTT7=
EXTT8=
EXTT9=
EXTT10=
EXTT11=
EXTT12=
EXTT13=
PLAYORDER=
